<svg width="226" height="78" viewBox="0 0 226 78" fill="none" xmlns="http://www.w3.org/2000/svg">
<path d="M19.1058 39.2464C19.0531 39.98 19.0349 40.7179 18.9381 41.4463C18.8239 42.3059 18.5775 43.1336 17.9903 43.8102C17.8848 43.9319 17.7318 44.0337 17.5804 44.0907C16.8074 44.3789 16.0645 44.278 15.3693 43.8499C14.623 43.3907 13.8828 42.9221 13.1478 42.444C12.3046 41.896 11.4096 41.4705 10.4039 41.3471C8.96325 41.1701 7.61858 41.4342 6.42004 42.2999C5.98335 42.6149 5.95741 43.0723 5.99373 43.528C6.02918 43.9768 6.34135 44.2443 6.75556 44.3815C7.36607 44.5843 7.9835 44.7664 8.59141 44.9753C8.76523 45.0349 8.95374 45.122 9.07394 45.2523C9.68704 45.9186 10.5077 46.2828 11.241 46.773C12.4655 47.5921 13.7557 48.3248 14.8522 49.3182C16.439 50.7551 17.8277 52.3656 19.0003 54.159C19.5642 55.0203 20.1669 55.8575 20.6987 56.7378C21.1726 57.5223 21.4778 58.3879 21.7087 59.276C21.9128 60.0605 22.142 60.839 22.3175 61.6295C22.4991 62.446 22.6305 63.2745 22.7845 64.097C22.8026 64.1928 22.826 64.2877 22.858 64.4344C22.1437 64.1962 21.4692 63.9753 20.7981 63.7474C18.4633 62.9534 16.1726 62.0533 13.9762 60.927C11.5255 59.6704 9.27716 58.1333 7.35569 56.1466C5.76284 54.4999 4.45708 52.6452 3.40382 50.617C2.86422 49.5788 2.33586 48.5293 1.89311 47.4479C1.33189 46.0774 1.44051 46.5253 0.96222 44.9753C0.773706 44.4463 0.506432 43.6603 0.354502 42.7487C0.253216 42.141 0.0880791 41.3583 0.0506428 40.647C0 39.6848 0.0506436 39.938 0 39.1784C0 38.6973 0.0203771 38.1807 0.0506432 37.9123C0.134523 37.1657 0.119521 36.9619 0.246638 36.2223C0.420452 35.2091 0.596859 34.1924 0.858877 33.1999C1.28087 31.6041 1.82826 30.0463 2.5114 28.5394C3.77998 25.7432 5.45239 23.2127 7.52605 20.9481C9.48383 18.8103 10.0123 18.1257 12.5089 16.6422C13.3549 16.1928 15.826 14.9962 16.6616 14.6924C17.7504 14.3885 18.5916 14.1951 19.7002 14.0087C20.6151 13.8551 21.6084 13.7719 22.532 13.6769C23.1788 13.6105 23.8308 13.5975 24.4802 13.5647C24.9385 13.5414 25.3968 13.5224 25.8552 13.5017C25.8733 13.5017 25.8915 13.5009 25.9096 13.5C26.3187 13.5 26.7277 13.5 27.1367 13.5C27.1549 13.5 27.173 13.5009 27.1912 13.5017C27.7342 13.5216 28.2782 13.5268 28.8204 13.5665C29.5251 13.6182 30.2282 13.6942 30.9312 13.7684C31.5227 13.8305 32.1159 13.8849 32.7031 13.9764C33.3629 14.0791 34.0201 14.2008 34.6712 14.3492C35.3613 14.5072 36.047 14.6884 36.7241 14.893C39.5466 15.7448 42.1443 17.0247 44.3909 18.9622C46.4361 20.7246 47.9727 22.8571 48.968 25.3583C49.3667 26.3603 49.6849 27.4011 49.9495 28.4462C50.1709 29.3222 50.2824 30.2284 50.4035 31.126C50.5038 31.8674 50.5548 32.6156 50.6119 33.3622C50.6586 33.9689 50.6828 34.5765 50.7165 35.184C50.7382 35.5638 50.7589 35.9444 50.7805 36.3241C50.7805 36.8722 50.7814 37.4193 50.7823 37.9674C50.7624 38.518 50.7546 39.0695 50.7191 39.6184C50.6811 40.2061 50.6171 40.7921 50.5626 41.3781C50.5133 41.9089 50.4908 42.4431 50.407 42.9679C50.2401 44.019 50.0723 45.0728 49.8475 46.1128C49.3165 48.5699 48.5019 50.9312 47.3432 53.1691C45.1069 57.4852 41.8495 60.7984 37.5499 63.0786C36.5987 63.5835 35.6077 64.0141 34.5917 64.5C34.4914 63.9563 34.3997 63.4825 34.3184 63.0069C34.2311 62.496 34.1463 61.9851 34.0719 61.4716C34.008 61.0323 33.9483 60.5921 33.9085 60.1511C33.8463 59.4546 33.7866 58.7582 33.7546 58.06C33.7079 57.0424 33.9976 56.0862 34.3331 55.1394C34.6946 54.1227 35.0802 53.113 35.3803 52.0782C35.5481 51.5008 35.593 50.8811 35.6397 50.277C35.7029 49.4675 35.7132 48.6527 35.7504 47.8415C35.7816 47.1407 35.7937 46.4382 35.8585 45.7408C35.9433 44.8269 36.2113 43.9535 36.642 43.1448C37.0372 42.4034 37.473 41.6819 37.9244 40.9734C38.7234 39.7185 39.5415 38.4748 40.3647 37.2355C40.8775 36.4631 41.4352 35.72 41.9359 34.9398C42.4141 34.1933 42.6459 33.3621 42.5655 32.4698C42.5205 31.9657 42.3856 31.4798 42.1383 31.0302C42.0648 30.8964 41.961 30.8619 41.8079 30.8472C40.8662 30.7558 40.267 31.2934 39.7706 31.9709C39.3486 32.5466 39.001 33.1766 38.5868 33.7583C38.2677 34.2062 37.9356 34.6593 37.5361 35.033C36.795 35.7269 36.2018 36.533 35.6017 37.3399C35.3535 37.6739 35.0794 37.9924 34.7923 38.2927C34.4801 38.6198 34.0849 38.8114 33.6257 38.8313C33.1692 38.8511 33.0974 38.7838 33.1908 38.3445C33.3482 37.6049 33.5047 36.8618 33.7226 36.1386C33.9492 35.3869 34.2501 34.6576 34.5173 33.918C34.9125 32.8227 35.216 31.7051 35.4469 30.5607C35.6025 29.7943 35.9095 29.059 36.1396 28.3064C36.4223 27.3821 36.7561 26.4673 36.9481 25.5248C37.0683 24.9345 37.0251 24.2933 36.9507 23.6883C36.8979 23.255 36.5036 22.9771 36.1629 22.7199C35.6103 22.3031 35.0837 22.3626 34.6245 22.8805C34.1714 23.3922 33.8947 24.0067 33.6491 24.6316C33.0706 26.1065 32.4998 27.5849 31.9533 29.0711C31.5236 30.2396 31.1465 31.4272 30.7211 32.5984C30.383 33.5296 29.9151 34.3969 29.3055 35.1832C29.2432 35.2634 29.174 35.3394 29.1049 35.4145C29.0902 35.4309 29.0616 35.4352 29.0262 35.4507C29.0097 35.3981 28.9829 35.3523 28.9829 35.3066C28.9821 34.5618 28.9665 33.8187 29.1083 33.0782C29.2744 32.21 29.4023 31.334 29.5467 30.4615C29.6747 29.6873 29.814 28.914 29.9272 28.1381C30.0206 27.4977 30.0725 26.8513 30.1642 26.2101C30.2602 25.5404 30.3899 24.875 30.4876 24.2052C30.6009 23.4285 30.8612 22.688 31.0358 21.9285C31.2953 20.7971 30.7972 19.6967 29.8408 19.083C29.1792 18.6584 28.2401 18.8397 27.8017 19.6803C27.5648 20.1342 27.5129 20.6305 27.3996 21.1147C27.1903 22.0131 26.9603 22.9063 26.7467 23.8039C26.5297 24.7162 26.3264 25.6318 26.1094 26.5441C25.9382 27.2647 25.7445 27.9802 25.5793 28.7017C25.4833 29.1229 25.4081 29.5501 25.3536 29.9781C25.2377 30.8878 25.1686 31.8044 25.025 32.7097C24.9455 33.2111 24.782 33.7048 24.6056 34.1838C24.4162 34.699 23.9302 34.8172 23.5039 34.4513C23.3068 34.2822 23.1355 34.0405 23.0465 33.7971C22.7775 33.0601 22.6591 32.2877 22.5665 31.5075C22.4213 30.2793 22.2284 29.0564 22.0667 27.83C22.0148 27.4391 21.9924 27.0446 21.9656 26.6511C21.9093 25.8252 21.918 24.9897 21.7909 24.1759C21.6586 23.3292 21.4173 22.4964 21.1786 21.6713C21.1017 21.4055 20.8786 21.1837 20.7298 20.9369C20.5214 20.5917 20.2049 20.5839 19.8599 20.64C19.1491 20.7574 18.721 21.2174 18.504 21.8526C18.3371 22.3419 18.21 22.8641 18.1814 23.3776C18.12 24.5151 18.1339 25.656 18.1131 26.7952C18.1088 27.0213 18.0872 27.2475 18.0742 27.4736C18.0742 27.5944 18.0759 27.7161 18.0768 27.8369C18.0768 28.0734 18.0777 28.3107 18.0785 28.5472C18.0768 28.6853 18.0759 28.8234 18.0742 28.9615C18.1183 29.4525 18.1615 29.9436 18.2074 30.4347C18.2437 30.8188 18.2783 31.2028 18.325 31.586C18.3812 32.0495 18.4478 32.5112 18.51 32.9738C18.5835 33.5201 18.657 34.0664 18.7314 34.6127C18.7945 35.0753 18.8628 35.5362 18.9217 35.9988C18.9658 36.3397 19.0064 36.6814 19.0349 37.0232C19.0652 37.3848 19.0799 37.7482 19.1015 38.1106C19.1015 38.4878 19.1007 38.8649 19.0998 39.2429L19.1058 39.2464Z" fill="#A9A987"/>
<path d="M50.7823 37.9678C50.7823 37.4198 50.7814 36.8726 50.7806 36.3246C50.7944 36.6655 50.8169 37.0064 50.8204 37.3473C50.8221 37.5536 50.7961 37.7607 50.7823 37.9678Z" fill="#A9A987"/>
<path d="M19.1071 39.2465C19.1071 38.8693 19.108 38.4922 19.1089 38.1141C19.1089 38.4913 19.108 38.8684 19.1071 39.2465Z" fill="#A9A987"/>
<path d="M18.0831 27.8392C18.0831 27.7183 18.0814 27.5967 18.0805 27.4758C18.0805 27.5967 18.0823 27.7183 18.0831 27.8392Z" fill="#A9A987"/>
<path d="M25.9116 13.5012C25.8934 13.5012 25.8753 13.5021 25.8571 13.5029C25.8753 13.5029 25.8934 13.5021 25.9116 13.5012Z" fill="#A9A987"/>
<path d="M27.196 13.5029C27.1779 13.5029 27.1597 13.5021 27.1416 13.5012C27.1597 13.5012 27.1779 13.5021 27.196 13.5029Z" fill="#A9A987"/>
<path d="M104.984 28.4492V50.1484C104.984 50.9948 105.31 51.5352 105.961 51.7695C106.625 51.9909 106.957 52.2643 106.957 52.5898C106.957 52.8633 106.82 53 106.547 53H99.9259C99.6524 53 99.5157 52.8633 99.5157 52.5898C99.5157 52.2643 99.8412 51.9909 100.492 51.7695C101.143 51.5352 101.469 50.9948 101.469 50.1484V29.2305L90.1993 53.5859H89.4376L78.2852 30.1484V50.1484C78.2852 50.9948 78.6108 51.5352 79.2618 51.7695C79.9129 51.9909 80.2384 52.2643 80.2384 52.5898C80.2384 52.8633 80.1017 53 79.8282 53H74.8673C74.5938 53 74.4571 52.8633 74.4571 52.5898C74.4571 52.2643 74.7826 51.9909 75.4337 51.7695C76.0847 51.5352 76.4102 50.9948 76.4102 50.1484V28.4492C76.4102 27.6159 76.0847 27.082 75.4337 26.8477C74.7826 26.6133 74.4571 26.3268 74.4571 25.9883C74.4571 25.7148 74.5938 25.5781 74.8673 25.5781H80.0626L90.7462 47.4922L101.098 25.5781H106.547C106.82 25.5781 106.957 25.7148 106.957 25.9883C106.957 26.3268 106.625 26.6133 105.961 26.8477C105.31 27.082 104.984 27.6159 104.984 28.4492ZM112.367 37.375C112.146 36.8802 111.827 36.4896 111.41 36.2031C111.072 35.9948 110.727 35.819 110.375 35.6758C110.024 35.5326 109.809 35.3633 109.731 35.168C109.705 35.1029 109.691 35.0443 109.691 34.9922C109.691 34.875 109.776 34.8164 109.945 34.8164H116.352C116.599 34.8164 116.775 34.9336 116.879 35.168C116.905 35.2201 116.918 35.2721 116.918 35.3242C116.918 35.4805 116.807 35.6107 116.586 35.7148C116.3 35.8711 116.098 36.1055 115.981 36.418C115.941 36.5352 115.922 36.6589 115.922 36.7891C115.922 36.9453 115.961 37.1081 116.039 37.2773L121.156 49.7578L125.649 38.9961C125.766 38.7227 125.824 38.4557 125.824 38.1953C125.824 37.7396 125.642 37.2969 125.277 36.8672L124.633 36.1055L126.391 34.7188C126.469 34.6406 126.54 34.6016 126.606 34.6016C126.697 34.6016 126.794 34.6536 126.899 34.7578L127.992 35.8711C128.214 36.1055 128.324 36.3919 128.324 36.7305C128.324 36.9258 128.285 37.1406 128.207 37.375C127.999 38 127.693 38.7292 127.289 39.5625L117.621 61.0859C117.231 61.9453 116.879 62.6615 116.566 63.2344C116.254 63.7812 115.857 64.0547 115.375 64.0547H115.316L113.754 63.9961C113.507 63.957 113.383 63.8333 113.383 63.625L113.266 61.3984L114.262 61.3789C115.134 61.3529 115.753 60.9688 116.117 60.2266L119.418 53.3711C119.223 53.3711 119.093 53.332 119.027 53.2539C118.988 53.2148 118.936 53.1172 118.871 52.9609C118.819 52.7917 118.78 52.668 118.754 52.5898L112.367 37.375ZM139.789 51.9258C140.844 51.8607 141.853 51.5872 142.816 51.1055C143.793 50.6107 144.574 49.8945 145.16 48.957C145.772 47.9805 146.078 46.8021 146.078 45.4219V45.207C146.039 43.7357 145.479 42.6094 144.399 41.8281C143.904 41.4635 143.305 41.1771 142.602 40.9688C141.221 40.5911 139.809 40.3242 138.363 40.168C136.931 40.0117 135.57 39.6211 134.281 38.9961C133.122 38.4492 132.257 37.6484 131.684 36.5938C131.111 35.526 130.824 34.3672 130.824 33.1172C130.824 30.6693 131.677 28.6706 133.383 27.1211C135.128 25.5065 137.328 24.6992 139.984 24.6992H140.57C143.474 24.8294 145.941 25.5521 147.973 26.8672L147.504 30.9688C147.478 31.2031 147.354 31.3203 147.133 31.3203H147.055C146.886 31.3073 146.723 31.125 146.566 30.7734C146.007 29.6016 145.193 28.6055 144.125 27.7852C143.057 26.9518 141.905 26.5091 140.668 26.457H140.356C139.158 26.457 138.09 26.6719 137.152 27.1016C136.54 27.4141 136.052 27.7591 135.688 28.1367C135.349 28.5013 135.05 28.9505 134.789 29.4844C134.581 29.9141 134.418 30.4154 134.301 30.9883C134.21 31.4049 134.164 31.8021 134.164 32.1797C134.164 32.6875 134.242 33.1562 134.399 33.5859C134.672 34.4583 135.141 35.1289 135.805 35.5977C136.313 35.9753 136.866 36.2357 137.465 36.3789C137.79 36.4701 138.188 36.5612 138.656 36.6523C139.125 36.7305 139.613 36.8086 140.121 36.8867C140.863 37.0039 141.645 37.1276 142.465 37.2578C143.298 37.375 144.106 37.5508 144.887 37.7852C146.189 38.2018 147.159 38.7552 147.797 39.4453C148.266 39.9792 148.65 40.5651 148.949 41.2031C149.301 42.0625 149.477 43.0065 149.477 44.0352C149.477 46.8216 148.344 49.1393 146.078 50.9883C144.906 51.9518 143.611 52.6615 142.191 53.1172C141.046 53.4818 139.822 53.6901 138.52 53.7422C138.233 53.7552 137.953 53.7617 137.68 53.7617C135.87 53.7617 134.138 53.5078 132.484 53L130.629 47.8438C130.603 47.7786 130.59 47.7135 130.59 47.6484C130.59 47.5182 130.636 47.388 130.727 47.2578C130.831 47.0885 130.968 47.0039 131.137 47.0039C131.293 47.043 131.456 47.2318 131.625 47.5703C132.458 49.3802 133.507 50.5911 134.77 51.2031C135.811 51.7109 137.133 51.9648 138.734 51.9648C139.073 51.9648 139.425 51.9518 139.789 51.9258ZM154.399 36.4961C153.904 36.5091 153.162 36.5417 152.172 36.5938H152.074C151.827 36.5938 151.697 36.4635 151.684 36.2031V36.1641C151.684 35.9557 151.807 35.793 152.055 35.6758C152.315 35.5586 152.856 35.2786 153.676 34.8359C153.871 34.7318 154.06 34.6406 154.242 34.5625C154.281 34.5495 154.333 34.543 154.399 34.543V31.2031C154.399 30.5521 154.529 30.1029 154.789 29.8555C155.063 29.5951 155.681 29.237 156.645 28.7812C156.996 28.612 157.276 28.5273 157.484 28.5273C157.784 28.5273 157.934 28.6966 157.934 29.0352V34.4844L162.582 34.3867H162.602C162.797 34.3867 162.895 34.556 162.895 34.8945C162.895 35.0768 162.869 35.2982 162.816 35.5586C162.686 36.1706 162.393 36.4766 161.938 36.4766L157.934 36.457V48.7031C157.934 49.888 158.344 50.7734 159.164 51.3594C159.997 51.9453 160.707 52.2773 161.293 52.3555V52.9805C159.353 52.9805 157.719 52.7982 156.391 52.4336C155.063 52.069 154.399 50.6302 154.399 48.1172V36.4961ZM174.945 34.3281C177.484 34.4323 179.633 35.4154 181.391 37.2773C183.149 39.1263 184.047 41.3398 184.086 43.918V44.0352C184.086 46.6393 183.168 48.8398 181.332 50.6367C179.457 52.4596 177.172 53.4102 174.477 53.4883H174.164C171.664 53.4883 169.509 52.5638 167.699 50.7148C165.824 48.8138 164.887 46.5677 164.887 43.9766V43.918C164.9 41.0664 165.974 38.6706 168.109 36.7305C168.357 36.4961 168.721 36.2943 169.203 36.125C169.698 35.9557 170.427 35.6953 171.391 35.3438C171.964 35.1354 172.595 34.9076 173.285 34.6602C173.936 34.4388 174.47 34.3281 174.887 34.3281H174.945ZM174.535 35.6367H174.301C172.777 35.6367 171.469 36.3724 170.375 37.8438C169.216 39.4062 168.637 41.3268 168.637 43.6055C168.637 45.8841 169.203 47.8633 170.336 49.543C171.482 51.2096 172.869 52.082 174.496 52.1602H174.77C176.28 52.1602 177.582 51.4245 178.676 49.9531C179.822 48.4036 180.395 46.4896 180.395 44.2109C180.395 41.9323 179.822 39.9596 178.676 38.293C177.53 36.6133 176.15 35.7279 174.535 35.6367ZM193.188 41.3789V50.1484C193.188 50.9948 193.507 51.5352 194.145 51.7695C194.796 51.9909 195.121 52.2643 195.121 52.5898C195.121 52.8633 194.991 53 194.731 53H188.109C187.836 53 187.699 52.8633 187.699 52.5898C187.699 52.2643 188.025 51.9909 188.676 51.7695C189.327 51.5352 189.652 50.9948 189.652 50.1484V37.6484C189.652 36.8281 189.327 36.3008 188.676 36.0664C188.025 35.832 187.699 35.5456 187.699 35.207C187.699 34.9336 187.836 34.7969 188.109 34.7969C188.969 34.7578 189.815 34.6276 190.649 34.4062C191.495 34.1719 192.341 33.9115 193.188 33.625V36.2031L195.902 35.168C196.905 34.7904 197.686 34.5104 198.246 34.3281C198.415 34.276 198.617 34.25 198.852 34.25C199.333 34.25 199.945 34.3802 200.688 34.6406L200.258 39.543H199.359C198.852 37.6419 197.875 36.6914 196.43 36.6914C196.287 36.6914 196.143 36.6979 196 36.7109C195.011 36.8281 194.301 37.3359 193.871 38.2344C193.455 39.1198 193.227 40.168 193.188 41.3789ZM204.828 37.375C204.607 36.8802 204.288 36.4896 203.871 36.2031C203.533 35.9948 203.188 35.819 202.836 35.6758C202.484 35.5326 202.27 35.3633 202.191 35.168C202.165 35.1029 202.152 35.0443 202.152 34.9922C202.152 34.875 202.237 34.8164 202.406 34.8164H208.813C209.06 34.8164 209.236 34.9336 209.34 35.168C209.366 35.2201 209.379 35.2721 209.379 35.3242C209.379 35.4805 209.268 35.6107 209.047 35.7148C208.761 35.8711 208.559 36.1055 208.441 36.418C208.402 36.5352 208.383 36.6589 208.383 36.7891C208.383 36.9453 208.422 37.1081 208.5 37.2773L213.617 49.7578L218.109 38.9961C218.227 38.7227 218.285 38.4557 218.285 38.1953C218.285 37.7396 218.103 37.2969 217.738 36.8672L217.094 36.1055L218.852 34.7188C218.93 34.6406 219.001 34.6016 219.066 34.6016C219.158 34.6016 219.255 34.6536 219.359 34.7578L220.453 35.8711C220.675 36.1055 220.785 36.3919 220.785 36.7305C220.785 36.9258 220.746 37.1406 220.668 37.375C220.46 38 220.154 38.7292 219.75 39.5625L210.082 61.0859C209.691 61.9453 209.34 62.6615 209.027 63.2344C208.715 63.7812 208.318 64.0547 207.836 64.0547H207.777L206.215 63.9961C205.968 63.957 205.844 63.8333 205.844 63.625L205.727 61.3984L206.723 61.3789C207.595 61.3529 208.214 60.9688 208.578 60.2266L211.879 53.3711C211.684 53.3711 211.553 53.332 211.488 53.2539C211.449 53.2148 211.397 53.1172 211.332 52.9609C211.28 52.7917 211.241 52.668 211.215 52.5898L204.828 37.375Z" fill="#A9A987"/>
</svg>
