<svg width="291" height="78" viewBox="0 0 291 78" fill="none" xmlns="http://www.w3.org/2000/svg">
<path d="M101.145 28.4492V50.1484C101.145 50.9948 101.47 51.5352 102.121 51.7695C102.785 51.9909 103.117 52.2643 103.117 52.5898C103.117 52.8633 102.98 53 102.707 53H96.0859C95.8125 53 95.6758 52.8633 95.6758 52.5898C95.6758 52.2643 96.0013 51.9909 96.6523 51.7695C97.3034 51.5352 97.6289 50.9948 97.6289 50.1484V29.2305L86.3594 53.5859H85.5977L74.4453 30.1484V50.1484C74.4453 50.9948 74.7708 51.5352 75.4219 51.7695C76.0729 51.9909 76.3984 52.2643 76.3984 52.5898C76.3984 52.8633 76.2617 53 75.9883 53H71.0273C70.7539 53 70.6172 52.8633 70.6172 52.5898C70.6172 52.2643 70.9427 51.9909 71.5938 51.7695C72.2448 51.5352 72.5703 50.9948 72.5703 50.1484V28.4492C72.5703 27.6159 72.2448 27.082 71.5938 26.8477C70.9427 26.6133 70.6172 26.3268 70.6172 25.9883C70.6172 25.7148 70.7539 25.5781 71.0273 25.5781H76.2227L86.9062 47.4922L97.2578 25.5781H102.707C102.98 25.5781 103.117 25.7148 103.117 25.9883C103.117 26.3268 102.785 26.6133 102.121 26.8477C101.47 27.082 101.145 27.6159 101.145 28.4492ZM108.527 37.375C108.306 36.8802 107.987 36.4896 107.57 36.2031C107.232 35.9948 106.887 35.819 106.535 35.6758C106.184 35.5326 105.969 35.3633 105.891 35.168C105.865 35.1029 105.852 35.0443 105.852 34.9922C105.852 34.875 105.936 34.8164 106.105 34.8164H112.512C112.759 34.8164 112.935 34.9336 113.039 35.168C113.065 35.2201 113.078 35.2721 113.078 35.3242C113.078 35.4805 112.967 35.6107 112.746 35.7148C112.46 35.8711 112.258 36.1055 112.141 36.418C112.102 36.5352 112.082 36.6589 112.082 36.7891C112.082 36.9453 112.121 37.1081 112.199 37.2773L117.316 49.7578L121.809 38.9961C121.926 38.7227 121.984 38.4557 121.984 38.1953C121.984 37.7396 121.802 37.2969 121.438 36.8672L120.793 36.1055L122.551 34.7188C122.629 34.6406 122.701 34.6016 122.766 34.6016C122.857 34.6016 122.954 34.6536 123.059 34.7578L124.152 35.8711C124.374 36.1055 124.484 36.3919 124.484 36.7305C124.484 36.9258 124.445 37.1406 124.367 37.375C124.159 38 123.853 38.7292 123.449 39.5625L113.781 61.0859C113.391 61.9453 113.039 62.6615 112.727 63.2344C112.414 63.7812 112.017 64.0547 111.535 64.0547H111.477L109.914 63.9961C109.667 63.957 109.543 63.8333 109.543 63.625L109.426 61.3984L110.422 61.3789C111.294 61.3529 111.913 60.9688 112.277 60.2266L115.578 53.3711C115.383 53.3711 115.253 53.332 115.188 53.2539C115.148 53.2148 115.096 53.1172 115.031 52.9609C114.979 52.7917 114.94 52.668 114.914 52.5898L108.527 37.375ZM135.949 51.9258C137.004 51.8607 138.013 51.5872 138.977 51.1055C139.953 50.6107 140.734 49.8945 141.32 48.957C141.932 47.9805 142.238 46.8021 142.238 45.4219V45.207C142.199 43.7357 141.639 42.6094 140.559 41.8281C140.064 41.4635 139.465 41.1771 138.762 40.9688C137.382 40.5911 135.969 40.3242 134.523 40.168C133.091 40.0117 131.73 39.6211 130.441 38.9961C129.283 38.4492 128.417 37.6484 127.844 36.5938C127.271 35.526 126.984 34.3672 126.984 33.1172C126.984 30.6693 127.837 28.6706 129.543 27.1211C131.288 25.5065 133.488 24.6992 136.145 24.6992H136.73C139.634 24.8294 142.102 25.5521 144.133 26.8672L143.664 30.9688C143.638 31.2031 143.514 31.3203 143.293 31.3203H143.215C143.046 31.3073 142.883 31.125 142.727 30.7734C142.167 29.6016 141.353 28.6055 140.285 27.7852C139.217 26.9518 138.065 26.5091 136.828 26.457H136.516C135.318 26.457 134.25 26.6719 133.312 27.1016C132.701 27.4141 132.212 27.7591 131.848 28.1367C131.509 28.5013 131.21 28.9505 130.949 29.4844C130.741 29.9141 130.578 30.4154 130.461 30.9883C130.37 31.4049 130.324 31.8021 130.324 32.1797C130.324 32.6875 130.402 33.1562 130.559 33.5859C130.832 34.4583 131.301 35.1289 131.965 35.5977C132.473 35.9753 133.026 36.2357 133.625 36.3789C133.951 36.4701 134.348 36.5612 134.816 36.6523C135.285 36.7305 135.773 36.8086 136.281 36.8867C137.023 37.0039 137.805 37.1276 138.625 37.2578C139.458 37.375 140.266 37.5508 141.047 37.7852C142.349 38.2018 143.319 38.7552 143.957 39.4453C144.426 39.9792 144.81 40.5651 145.109 41.2031C145.461 42.0625 145.637 43.0065 145.637 44.0352C145.637 46.8216 144.504 49.1393 142.238 50.9883C141.066 51.9518 139.771 52.6615 138.352 53.1172C137.206 53.4818 135.982 53.6901 134.68 53.7422C134.393 53.7552 134.113 53.7617 133.84 53.7617C132.03 53.7617 130.298 53.5078 128.645 53L126.789 47.8438C126.763 47.7786 126.75 47.7135 126.75 47.6484C126.75 47.5182 126.796 47.388 126.887 47.2578C126.991 47.0885 127.128 47.0039 127.297 47.0039C127.453 47.043 127.616 47.2318 127.785 47.5703C128.618 49.3802 129.667 50.5911 130.93 51.2031C131.971 51.7109 133.293 51.9648 134.895 51.9648C135.233 51.9648 135.585 51.9518 135.949 51.9258ZM150.559 36.4961C150.064 36.5091 149.322 36.5417 148.332 36.5938H148.234C147.987 36.5938 147.857 36.4635 147.844 36.2031V36.1641C147.844 35.9557 147.967 35.793 148.215 35.6758C148.475 35.5586 149.016 35.2786 149.836 34.8359C150.031 34.7318 150.22 34.6406 150.402 34.5625C150.441 34.5495 150.493 34.543 150.559 34.543V31.2031C150.559 30.5521 150.689 30.1029 150.949 29.8555C151.223 29.5951 151.841 29.237 152.805 28.7812C153.156 28.612 153.436 28.5273 153.645 28.5273C153.944 28.5273 154.094 28.6966 154.094 29.0352V34.4844L158.742 34.3867H158.762C158.957 34.3867 159.055 34.556 159.055 34.8945C159.055 35.0768 159.029 35.2982 158.977 35.5586C158.846 36.1706 158.553 36.4766 158.098 36.4766L154.094 36.457V48.7031C154.094 49.888 154.504 50.7734 155.324 51.3594C156.158 51.9453 156.867 52.2773 157.453 52.3555V52.9805C155.513 52.9805 153.879 52.7982 152.551 52.4336C151.223 52.069 150.559 50.6302 150.559 48.1172V36.4961ZM171.105 34.3281C173.645 34.4323 175.793 35.4154 177.551 37.2773C179.309 39.1263 180.207 41.3398 180.246 43.918V44.0352C180.246 46.6393 179.328 48.8398 177.492 50.6367C175.617 52.4596 173.332 53.4102 170.637 53.4883H170.324C167.824 53.4883 165.669 52.5638 163.859 50.7148C161.984 48.8138 161.047 46.5677 161.047 43.9766V43.918C161.06 41.0664 162.134 38.6706 164.27 36.7305C164.517 36.4961 164.882 36.2943 165.363 36.125C165.858 35.9557 166.587 35.6953 167.551 35.3438C168.124 35.1354 168.755 34.9076 169.445 34.6602C170.096 34.4388 170.63 34.3281 171.047 34.3281H171.105ZM170.695 35.6367H170.461C168.938 35.6367 167.629 36.3724 166.535 37.8438C165.376 39.4062 164.797 41.3268 164.797 43.6055C164.797 45.8841 165.363 47.8633 166.496 49.543C167.642 51.2096 169.029 52.082 170.656 52.1602H170.93C172.44 52.1602 173.742 51.4245 174.836 49.9531C175.982 48.4036 176.555 46.4896 176.555 44.2109C176.555 41.9323 175.982 39.9596 174.836 38.293C173.69 36.6133 172.31 35.7279 170.695 35.6367ZM189.348 41.3789V50.1484C189.348 50.9948 189.667 51.5352 190.305 51.7695C190.956 51.9909 191.281 52.2643 191.281 52.5898C191.281 52.8633 191.151 53 190.891 53H184.27C183.996 53 183.859 52.8633 183.859 52.5898C183.859 52.2643 184.185 51.9909 184.836 51.7695C185.487 51.5352 185.812 50.9948 185.812 50.1484V37.6484C185.812 36.8281 185.487 36.3008 184.836 36.0664C184.185 35.832 183.859 35.5456 183.859 35.207C183.859 34.9336 183.996 34.7969 184.27 34.7969C185.129 34.7578 185.975 34.6276 186.809 34.4062C187.655 34.1719 188.501 33.9115 189.348 33.625V36.2031L192.062 35.168C193.065 34.7904 193.846 34.5104 194.406 34.3281C194.576 34.276 194.777 34.25 195.012 34.25C195.493 34.25 196.105 34.3802 196.848 34.6406L196.418 39.543H195.52C195.012 37.6419 194.035 36.6914 192.59 36.6914C192.447 36.6914 192.303 36.6979 192.16 36.7109C191.171 36.8281 190.461 37.3359 190.031 38.2344C189.615 39.1198 189.387 40.168 189.348 41.3789ZM200.988 37.375C200.767 36.8802 200.448 36.4896 200.031 36.2031C199.693 35.9948 199.348 35.819 198.996 35.6758C198.645 35.5326 198.43 35.3633 198.352 35.168C198.326 35.1029 198.312 35.0443 198.312 34.9922C198.312 34.875 198.397 34.8164 198.566 34.8164H204.973C205.22 34.8164 205.396 34.9336 205.5 35.168C205.526 35.2201 205.539 35.2721 205.539 35.3242C205.539 35.4805 205.428 35.6107 205.207 35.7148C204.921 35.8711 204.719 36.1055 204.602 36.418C204.562 36.5352 204.543 36.6589 204.543 36.7891C204.543 36.9453 204.582 37.1081 204.66 37.2773L209.777 49.7578L214.27 38.9961C214.387 38.7227 214.445 38.4557 214.445 38.1953C214.445 37.7396 214.263 37.2969 213.898 36.8672L213.254 36.1055L215.012 34.7188C215.09 34.6406 215.161 34.6016 215.227 34.6016C215.318 34.6016 215.415 34.6536 215.52 34.7578L216.613 35.8711C216.835 36.1055 216.945 36.3919 216.945 36.7305C216.945 36.9258 216.906 37.1406 216.828 37.375C216.62 38 216.314 38.7292 215.91 39.5625L206.242 61.0859C205.852 61.9453 205.5 62.6615 205.188 63.2344C204.875 63.7812 204.478 64.0547 203.996 64.0547H203.938L202.375 63.9961C202.128 63.957 202.004 63.8333 202.004 63.625L201.887 61.3984L202.883 61.3789C203.755 61.3529 204.374 60.9688 204.738 60.2266L208.039 53.3711C207.844 53.3711 207.714 53.332 207.648 53.2539C207.609 53.2148 207.557 53.1172 207.492 52.9609C207.44 52.7917 207.401 52.668 207.375 52.5898L200.988 37.375Z" fill="#A9A987"/>
<path d="M19.1058 38.7464C19.0531 39.48 19.0349 40.2179 18.9381 40.9463C18.8239 41.8059 18.5775 42.6336 17.9903 43.3102C17.8848 43.4319 17.7318 43.5337 17.5804 43.5907C16.8074 43.8789 16.0645 43.778 15.3693 43.3499C14.623 42.8907 13.8828 42.4221 13.1478 41.944C12.3046 41.396 11.4096 40.9705 10.4039 40.8471C8.96325 40.6701 7.61858 40.9342 6.42004 41.7999C5.98335 42.1149 5.95741 42.5723 5.99373 43.028C6.02918 43.4768 6.34135 43.7443 6.75556 43.8815C7.36607 44.0843 7.9835 44.2664 8.59141 44.4753C8.76523 44.5349 8.95374 44.622 9.07394 44.7523C9.68704 45.4186 10.5077 45.7828 11.241 46.273C12.4655 47.0921 13.7557 47.8248 14.8522 48.8182C16.439 50.2551 17.8277 51.8656 19.0003 53.659C19.5642 54.5203 20.1669 55.3575 20.6987 56.2378C21.1726 57.0223 21.4778 57.8879 21.7087 58.776C21.9128 59.5605 22.142 60.339 22.3175 61.1295C22.4991 61.946 22.6305 62.7745 22.7845 63.597C22.8026 63.6928 22.826 63.7877 22.858 63.9344C22.1437 63.6962 21.4692 63.4753 20.7981 63.2474C18.4633 62.4534 16.1726 61.5533 13.9762 60.427C11.5255 59.1704 9.27715 57.6333 7.35569 55.6466C5.76284 53.9999 4.45708 52.1452 3.40382 50.117C2.86422 49.0788 2.33586 48.0293 1.89311 46.9479C1.33189 45.5774 1.44051 46.0253 0.96222 44.4753C0.773706 43.9463 0.506432 43.1603 0.354502 42.2487C0.253216 41.641 0.0880791 40.8583 0.0506428 40.147C0 39.1848 0.0506436 39.438 0 38.6784C0 38.1973 0.0203771 37.6807 0.0506432 37.4123C0.134523 36.6657 0.119521 36.4619 0.246638 35.7223C0.420452 34.7091 0.596859 33.6924 0.858877 32.6999C1.28087 31.1041 1.82826 29.5463 2.5114 28.0394C3.77998 25.2432 5.45239 22.7127 7.52605 20.4481C9.48383 18.3103 10.0123 17.6257 12.5089 16.1422C13.3549 15.6928 15.826 14.4962 16.6616 14.1924C17.7504 13.8885 18.5916 13.6951 19.7002 13.5087C20.6151 13.3551 21.6084 13.2719 22.532 13.1769C23.1788 13.1105 23.8308 13.0975 24.4802 13.0647C24.9385 13.0414 25.3968 13.0224 25.8552 13.0017C25.8733 13.0017 25.8915 13.0009 25.9096 13C26.3187 13 26.7277 13 27.1367 13C27.1549 13 27.173 13.0009 27.1912 13.0017C27.7342 13.0216 28.2782 13.0268 28.8204 13.0665C29.5251 13.1182 30.2282 13.1942 30.9312 13.2684C31.5227 13.3305 32.1159 13.3849 32.7031 13.4764C33.3629 13.5791 34.0201 13.7008 34.6712 13.8492C35.3613 14.0072 36.047 14.1884 36.7241 14.393C39.5466 15.2448 42.1443 16.5247 44.3909 18.4622C46.4361 20.2246 47.9727 22.3571 48.968 24.8583C49.3667 25.8603 49.6849 26.9011 49.9495 27.9462C50.1709 28.8222 50.2824 29.7284 50.4035 30.626C50.5038 31.3674 50.5548 32.1156 50.6119 32.8622C50.6586 33.4689 50.6828 34.0765 50.7165 34.684C50.7382 35.0638 50.7589 35.4444 50.7805 35.8241C50.7805 36.3722 50.7814 36.9193 50.7823 37.4674C50.7624 38.018 50.7546 38.5695 50.7191 39.1184C50.6811 39.7061 50.6171 40.2921 50.5626 40.8781C50.5133 41.4089 50.4908 41.9431 50.407 42.4679C50.2401 43.519 50.0723 44.5728 49.8475 45.6128C49.3165 48.0699 48.5019 50.4312 47.3432 52.6691C45.1069 56.9852 41.8495 60.2984 37.5499 62.5786C36.5987 63.0835 35.6077 63.5141 34.5917 64C34.4914 63.4563 34.3997 62.9825 34.3184 62.5069C34.2311 61.996 34.1463 61.4851 34.0719 60.9716C34.008 60.5323 33.9483 60.0921 33.9085 59.6511C33.8463 58.9546 33.7866 58.2582 33.7546 57.56C33.7079 56.5424 33.9976 55.5862 34.3331 54.6394C34.6946 53.6227 35.0802 52.613 35.3803 51.5782C35.5481 51.0008 35.593 50.3811 35.6397 49.777C35.7029 48.9675 35.7132 48.1527 35.7504 47.3415C35.7816 46.6407 35.7937 45.9382 35.8585 45.2408C35.9433 44.3269 36.2113 43.4535 36.642 42.6448C37.0372 41.9034 37.473 41.1819 37.9244 40.4734C38.7234 39.2185 39.5415 37.9748 40.3647 36.7355C40.8775 35.9631 41.4352 35.22 41.9359 34.4398C42.4141 33.6933 42.6459 32.8622 42.5655 31.9698C42.5205 31.4657 42.3856 30.9798 42.1383 30.5302C42.0648 30.3964 41.961 30.3619 41.8079 30.3472C40.8662 30.2558 40.267 30.7934 39.7706 31.4709C39.3486 32.0466 39.001 32.6766 38.5868 33.2583C38.2677 33.7062 37.9356 34.1593 37.5361 34.533C36.795 35.2269 36.2018 36.033 35.6017 36.8399C35.3535 37.1739 35.0794 37.4924 34.7923 37.7927C34.4801 38.1198 34.0849 38.3114 33.6257 38.3313C33.1692 38.3511 33.0974 38.2838 33.1908 37.8445C33.3482 37.1049 33.5047 36.3618 33.7226 35.6386C33.9492 34.8869 34.2501 34.1576 34.5173 33.418C34.9125 32.3227 35.216 31.2051 35.4469 30.0607C35.6025 29.2943 35.9095 28.559 36.1396 27.8064C36.4223 26.8821 36.7561 25.9673 36.9481 25.0248C37.0683 24.4345 37.0251 23.7933 36.9507 23.1883C36.8979 22.755 36.5036 22.4771 36.1629 22.2199C35.6103 21.8031 35.0837 21.8626 34.6245 22.3805C34.1714 22.8922 33.8947 23.5067 33.6491 24.1316C33.0706 25.6065 32.4998 27.0849 31.9533 28.5711C31.5236 29.7396 31.1465 30.9272 30.7211 32.0984C30.383 33.0296 29.9151 33.8969 29.3055 34.6832C29.2432 34.7634 29.174 34.8394 29.1049 34.9145C29.0902 34.9309 29.0616 34.9352 29.0262 34.9507C29.0097 34.8981 28.9829 34.8523 28.9829 34.8066C28.9821 34.0618 28.9665 33.3187 29.1083 32.5782C29.2744 31.71 29.4023 30.834 29.5467 29.9615C29.6747 29.1873 29.814 28.414 29.9272 27.6381C30.0206 26.9977 30.0725 26.3513 30.1642 25.7101C30.2602 25.0404 30.3899 24.375 30.4876 23.7052C30.6009 22.9285 30.8612 22.188 31.0358 21.4285C31.2953 20.2971 30.7972 19.1967 29.8408 18.583C29.1792 18.1584 28.2401 18.3397 27.8017 19.1803C27.5648 19.6342 27.5129 20.1305 27.3996 20.6147C27.1903 21.5131 26.9603 22.4063 26.7467 23.3039C26.5297 24.2162 26.3264 25.1318 26.1094 26.0441C25.9382 26.7647 25.7445 27.4802 25.5793 28.2017C25.4833 28.6229 25.4081 29.0501 25.3536 29.4781C25.2377 30.3878 25.1686 31.3044 25.025 32.2097C24.9455 32.7111 24.782 33.2048 24.6056 33.6838C24.4162 34.199 23.9303 34.3172 23.5039 33.9513C23.3068 33.7822 23.1355 33.5405 23.0465 33.2971C22.7775 32.5601 22.6591 31.7877 22.5665 31.0075C22.4213 29.7793 22.2284 28.5564 22.0667 27.33C22.0148 26.9391 21.9924 26.5447 21.9655 26.1511C21.9093 25.3252 21.918 24.4897 21.7909 23.6759C21.6586 22.8292 21.4173 21.9964 21.1786 21.1713C21.1017 20.9055 20.8786 20.6837 20.7298 20.4369C20.5214 20.0917 20.2049 20.0839 19.8599 20.14C19.1491 20.2574 18.721 20.7174 18.504 21.3526C18.3371 21.8419 18.21 22.3641 18.1814 22.8776C18.12 24.0151 18.1339 25.156 18.1131 26.2952C18.1088 26.5213 18.0872 26.7475 18.0742 26.9736C18.0742 27.0944 18.0759 27.2161 18.0768 27.3369C18.0768 27.5734 18.0777 27.8107 18.0785 28.0472C18.0768 28.1853 18.0759 28.3234 18.0742 28.4615C18.1183 28.9525 18.1615 29.4436 18.2074 29.9347C18.2437 30.3188 18.2783 30.7028 18.325 31.086C18.3812 31.5495 18.4478 32.0112 18.51 32.4738C18.5835 33.0201 18.657 33.5664 18.7314 34.1127C18.7945 34.5753 18.8628 35.0362 18.9217 35.4988C18.9658 35.8397 19.0064 36.1814 19.0349 36.5232C19.0652 36.8848 19.0799 37.2482 19.1015 37.6106C19.1015 37.9878 19.1007 38.3649 19.0998 38.743L19.1058 38.7464Z" fill="#A9A987"/>
<path d="M50.783 37.4679C50.783 36.9199 50.7821 36.3727 50.7812 35.8247C50.7951 36.1656 50.8176 36.5065 50.821 36.8474C50.8228 37.0537 50.7968 37.2608 50.783 37.4679Z" fill="#A9A987"/>
<path d="M19.1074 38.7466C19.1074 38.3694 19.1083 37.9923 19.1092 37.6143C19.1092 37.9914 19.1083 38.3686 19.1074 38.7466Z" fill="#A9A987"/>
<path d="M18.0827 27.3389C18.0827 27.2181 18.0809 27.0964 18.0801 26.9756C18.0801 27.0964 18.0818 27.2181 18.0827 27.3389Z" fill="#A9A987"/>
<path d="M25.9119 13.001C25.8937 13.001 25.8756 13.0018 25.8574 13.0027C25.8756 13.0027 25.8937 13.0018 25.9119 13.001Z" fill="#A9A987"/>
<path d="M27.1951 13.0027C27.1769 13.0027 27.1588 13.0018 27.1406 13.001C27.1588 13.001 27.1769 13.0018 27.1951 13.0027Z" fill="#A9A987"/>
</svg>
